<mxfile host="app.diagrams.net" modified="2023-12-28T03:18:02.353Z" agent="Mozilla/5.0 (Windows NT 10.0; Win64; x64) AppleWebKit/537.36 (KHTML, like Gecko) Chrome/119.0.0.0 Safari/537.36 OPR/105.0.0.0" etag="PWkDC7K5cCkEAUNq8Uox" version="22.1.15" type="device">
  <diagram id="5U9Hxn1FtDaWwIgWWOdB" name="Page-1">
    <mxGraphModel dx="996" dy="559" grid="0" gridSize="10" guides="1" tooltips="1" connect="1" arrows="1" fold="1" page="1" pageScale="1" pageWidth="2000" pageHeight="1000" math="0" shadow="0">
      <root>
        <mxCell id="0" />
        <mxCell id="1" parent="0" />
        <mxCell id="cDSuRA7JW4JfpAQJ73de-1" value="" style="endArrow=none;html=1;rounded=0;startSize=10;strokeWidth=2;sourcePerimeterSpacing=60;" parent="1" edge="1">
          <mxGeometry width="50" height="50" relative="1" as="geometry">
            <mxPoint x="5" y="5" as="sourcePoint" />
            <mxPoint x="5" y="995" as="targetPoint" />
          </mxGeometry>
        </mxCell>
        <mxCell id="cDSuRA7JW4JfpAQJ73de-2" value="" style="endArrow=none;html=1;sketch=0;curved=0;strokeWidth=2;" parent="1" edge="1">
          <mxGeometry width="50" height="50" relative="1" as="geometry">
            <mxPoint x="1995" y="995" as="sourcePoint" />
            <mxPoint x="5" y="995" as="targetPoint" />
          </mxGeometry>
        </mxCell>
        <mxCell id="cDSuRA7JW4JfpAQJ73de-3" value="" style="endArrow=none;html=1;sketch=0;strokeWidth=2;curved=0;" parent="1" edge="1">
          <mxGeometry width="50" height="50" relative="1" as="geometry">
            <mxPoint x="1995" y="995" as="sourcePoint" />
            <mxPoint x="1995" y="5" as="targetPoint" />
          </mxGeometry>
        </mxCell>
        <mxCell id="Zt8xaTKPjNduDUg_bbYD-1" value="" style="rounded=0;whiteSpace=wrap;html=1;" parent="1" vertex="1">
          <mxGeometry x="327" y="68" width="456" height="465" as="geometry" />
        </mxCell>
        <mxCell id="Zt8xaTKPjNduDUg_bbYD-2" value="UTILIZADOR" style="shape=umlActor;verticalLabelPosition=bottom;verticalAlign=top;html=1;outlineConnect=0;" parent="1" vertex="1">
          <mxGeometry x="201" y="265" width="30" height="60" as="geometry" />
        </mxCell>
        <mxCell id="Zt8xaTKPjNduDUg_bbYD-3" value="LOGIN" style="ellipse;whiteSpace=wrap;html=1;" parent="1" vertex="1">
          <mxGeometry x="492" y="86" width="91" height="51" as="geometry" />
        </mxCell>
        <mxCell id="Zt8xaTKPjNduDUg_bbYD-4" value="VER BILHETE" style="ellipse;whiteSpace=wrap;html=1;" parent="1" vertex="1">
          <mxGeometry x="405" y="267.5" width="110" height="66" as="geometry" />
        </mxCell>
        <mxCell id="Zt8xaTKPjNduDUg_bbYD-5" value="COMPRAR BILHETE" style="ellipse;whiteSpace=wrap;html=1;" parent="1" vertex="1">
          <mxGeometry x="397.75" y="383" width="124.5" height="60" as="geometry" />
        </mxCell>
        <mxCell id="Zt8xaTKPjNduDUg_bbYD-6" value="" style="endArrow=classic;html=1;rounded=0;exitX=1;exitY=0.3333333333333333;exitDx=0;exitDy=0;exitPerimeter=0;entryX=0;entryY=0.5;entryDx=0;entryDy=0;" parent="1" source="Zt8xaTKPjNduDUg_bbYD-2" target="Zt8xaTKPjNduDUg_bbYD-3" edge="1">
          <mxGeometry width="50" height="50" relative="1" as="geometry">
            <mxPoint x="543" y="344" as="sourcePoint" />
            <mxPoint x="593" y="294" as="targetPoint" />
          </mxGeometry>
        </mxCell>
        <mxCell id="Zt8xaTKPjNduDUg_bbYD-7" value="" style="endArrow=classic;html=1;rounded=0;exitX=1;exitY=0.3333333333333333;exitDx=0;exitDy=0;exitPerimeter=0;entryX=0;entryY=0.5;entryDx=0;entryDy=0;" parent="1" source="Zt8xaTKPjNduDUg_bbYD-2" target="Zt8xaTKPjNduDUg_bbYD-4" edge="1">
          <mxGeometry width="50" height="50" relative="1" as="geometry">
            <mxPoint x="543" y="344" as="sourcePoint" />
            <mxPoint x="593" y="294" as="targetPoint" />
          </mxGeometry>
        </mxCell>
        <mxCell id="Zt8xaTKPjNduDUg_bbYD-8" value="" style="endArrow=classic;html=1;rounded=0;exitX=1;exitY=0.3333333333333333;exitDx=0;exitDy=0;exitPerimeter=0;entryX=0;entryY=0.5;entryDx=0;entryDy=0;" parent="1" source="Zt8xaTKPjNduDUg_bbYD-2" target="Zt8xaTKPjNduDUg_bbYD-5" edge="1">
          <mxGeometry width="50" height="50" relative="1" as="geometry">
            <mxPoint x="543" y="344" as="sourcePoint" />
            <mxPoint x="593" y="294" as="targetPoint" />
          </mxGeometry>
        </mxCell>
        <mxCell id="Zt8xaTKPjNduDUg_bbYD-9" value="GESTOR" style="shape=umlActor;verticalLabelPosition=bottom;verticalAlign=top;html=1;outlineConnect=0;" parent="1" vertex="1">
          <mxGeometry x="882" y="233" width="30" height="61" as="geometry" />
        </mxCell>
        <mxCell id="Zt8xaTKPjNduDUg_bbYD-10" value="ADICIONAR PARAGEM/&lt;br&gt;PARAGENS" style="ellipse;whiteSpace=wrap;html=1;" parent="1" vertex="1">
          <mxGeometry x="590" y="233" width="120" height="80" as="geometry" />
        </mxCell>
        <mxCell id="Zt8xaTKPjNduDUg_bbYD-11" value="GESTÃƒO DE AUTOCARROS" style="ellipse;whiteSpace=wrap;html=1;" parent="1" vertex="1">
          <mxGeometry x="595" y="376" width="120" height="80" as="geometry" />
        </mxCell>
        <mxCell id="Zt8xaTKPjNduDUg_bbYD-12" value="" style="endArrow=classic;html=1;rounded=0;exitX=0;exitY=0.333;exitDx=0;exitDy=0;exitPerimeter=0;entryX=1;entryY=0.5;entryDx=0;entryDy=0;" parent="1" source="Zt8xaTKPjNduDUg_bbYD-9" target="Zt8xaTKPjNduDUg_bbYD-3" edge="1">
          <mxGeometry width="50" height="50" relative="1" as="geometry">
            <mxPoint x="543" y="337" as="sourcePoint" />
            <mxPoint x="593" y="287" as="targetPoint" />
          </mxGeometry>
        </mxCell>
        <mxCell id="Zt8xaTKPjNduDUg_bbYD-13" value="" style="endArrow=classic;html=1;rounded=0;exitX=0;exitY=0.3333333333333333;exitDx=0;exitDy=0;exitPerimeter=0;entryX=1;entryY=0.5;entryDx=0;entryDy=0;" parent="1" source="Zt8xaTKPjNduDUg_bbYD-9" target="Zt8xaTKPjNduDUg_bbYD-10" edge="1">
          <mxGeometry width="50" height="50" relative="1" as="geometry">
            <mxPoint x="543" y="337" as="sourcePoint" />
            <mxPoint x="593" y="287" as="targetPoint" />
          </mxGeometry>
        </mxCell>
        <mxCell id="Zt8xaTKPjNduDUg_bbYD-15" value="" style="endArrow=classic;html=1;rounded=0;entryX=1;entryY=0.5;entryDx=0;entryDy=0;exitX=0;exitY=0.3333333333333333;exitDx=0;exitDy=0;exitPerimeter=0;" parent="1" source="Zt8xaTKPjNduDUg_bbYD-9" target="Zt8xaTKPjNduDUg_bbYD-11" edge="1">
          <mxGeometry width="50" height="50" relative="1" as="geometry">
            <mxPoint x="941" y="241" as="sourcePoint" />
            <mxPoint x="749" y="279" as="targetPoint" />
          </mxGeometry>
        </mxCell>
        <mxCell id="MkumbfwD8OaOO595Smus-1" value="REGISTAR" style="ellipse;whiteSpace=wrap;html=1;" parent="1" vertex="1">
          <mxGeometry x="492" y="167" width="91" height="51" as="geometry" />
        </mxCell>
        <mxCell id="MkumbfwD8OaOO595Smus-2" value="" style="endArrow=classic;html=1;rounded=0;exitX=1;exitY=0.3333333333333333;exitDx=0;exitDy=0;exitPerimeter=0;entryX=0;entryY=0.5;entryDx=0;entryDy=0;" parent="1" source="Zt8xaTKPjNduDUg_bbYD-2" target="MkumbfwD8OaOO595Smus-1" edge="1">
          <mxGeometry width="50" height="50" relative="1" as="geometry">
            <mxPoint x="241" y="295" as="sourcePoint" />
            <mxPoint x="502" y="121.5" as="targetPoint" />
          </mxGeometry>
        </mxCell>
      </root>
    </mxGraphModel>
  </diagram>
</mxfile>
